<svg xmlns="http://www.w3.org/2000/svg" width="225" height="46" viewBox="0 0 225 46"><g transform="translate(-26 -27)"><g transform="translate(-4 4.172)"><path d="M360.65,290.664c2.945,1.363,3.6,1.931,3.6,3.01a2.511,2.511,0,0,1-2.18,2.612,4.207,4.207,0,0,1-2.011-.71,29.315,29.315,0,0,0-3.625-1.732c-1.416-.625-1.841-1.136-1.841-2.1a2.38,2.38,0,0,1,2.209-2.5,14.062,14.062,0,0,1,3.851,1.42m18.548.085c0,1.307-1.246,3.578-3.484,6.361a28.179,28.179,0,0,1-10.789,8.348,21.491,21.491,0,0,1-6.6,1.959,2.356,2.356,0,0,1-2.294-2.556c0-1.391.538-1.9,2.379-2.328a23.272,23.272,0,0,0,16-12.21c.708-1.278,1.246-1.676,2.322-1.676a2.445,2.445,0,0,1,2.464,2.1m-15.8-6.985c2.945,1.477,3.653,2.13,3.653,3.237a2.431,2.431,0,0,1-2.152,2.556,3.213,3.213,0,0,1-1.614-.568c-1.756-1.022-3.37-1.874-4.559-2.442a1.86,1.86,0,0,1-1.3-1.817,2.4,2.4,0,0,1,2.209-2.414,11.333,11.333,0,0,1,3.766,1.448" transform="translate(-236.165 -242.307)" fill="#fff"/><path d="M444.3,313.011v-8.433h-5.465c-1.019,0-1.614-.738-1.614-2.016,0-1.306.566-2.044,1.614-2.044h15.348c1.02,0,1.615.738,1.615,2.044,0,1.278-.595,2.016-1.615,2.016h-5.578v8.433h6.712c1.076,0,1.671.738,1.671,2.073s-.595,2.073-1.671,2.073H437.676c-1.076,0-1.642-.738-1.642-2.073s.595-2.073,1.642-2.073Z" transform="translate(-287.96 -253.864)" fill="#fff"/><path d="M531.686,284.494c1.812,0,2.747.851,2.747,2.5,0,2.7-2.464,7.979-8.609,10.308a16.081,16.081,0,0,1-2.832.766,15.09,15.09,0,0,1-5.663,9.683,3.123,3.123,0,0,1-2.124.909,2.529,2.529,0,0,1-2.52-2.527c0-.852.255-1.25,1.387-2.073,3.37-2.47,4.446-4.827,4.559-10,.028-1.789.056-3.294,2.435-3.294,2.407,0,2.407,1.562,2.407,2.811,3.795-1.022,5.466-3.89,5.466-4.373,0-.2-.113-.284-.4-.284H511.92c-1.132,0-1.756-.795-1.756-2.215s.623-2.214,1.756-2.214Z" transform="translate(-335.105 -243.69)" fill="#fff"/><path d="M608.558,287.562a65.482,65.482,0,0,1,7.363,3.1c2.407,1.249,2.888,1.732,2.888,2.953a2.527,2.527,0,0,1-2.322,2.7c-.68,0-.934-.142-3.2-1.392-.991-.567-2.945-1.419-4.729-2.215v11.642c0,1.249-.849,1.931-2.407,1.931-1.529,0-2.407-.682-2.407-1.931v-22.12c0-1.249.849-1.931,2.407-1.931s2.407.682,2.407,1.931Z" transform="translate(-394.619 -241.022)" fill="#fff"/><path d="M684.935,290.17c2.265,0,3.37.88,3.37,2.641,0,.654-.453,8.6-9.911,13.8a12.18,12.18,0,0,1-4.984,1.76,2.5,2.5,0,0,1-2.209-2.641c0-1.448.793-1.76,2.747-2.442,7.7-2.7,8.977-8.121,8.977-8.4,0-.256-.17-.341-.765-.341H666.3c-1.1,0-1.727-.767-1.727-2.186,0-1.391.622-2.187,1.727-2.187Zm-16-2.47c-1.1,0-1.727-.8-1.727-2.187s.623-2.186,1.727-2.186h15.773c1.1,0,1.727.795,1.727,2.186s-.623,2.187-1.727,2.187Z" transform="translate(-433.306 -242.949)" fill="#fff"/><g transform="translate(118.487 25.806)"><path d="M357.421,246.749c.785.362.958.513.958.8a.668.668,0,0,1-.581.694,1.123,1.123,0,0,1-.536-.189,7.78,7.78,0,0,0-.965-.46c-.377-.166-.49-.3-.49-.558a.632.632,0,0,1,.588-.664,3.757,3.757,0,0,1,1.026.377m4.941.023a3.562,3.562,0,0,1-.928,1.69,7.507,7.507,0,0,1-2.874,2.218,5.734,5.734,0,0,1-1.757.521.627.627,0,0,1-.611-.679c0-.37.143-.505.634-.619a6.2,6.2,0,0,0,4.262-3.243c.189-.34.332-.445.619-.445a.651.651,0,0,1,.656.558m-4.209-1.856c.785.392.973.566.973.86a.646.646,0,0,1-.573.679.86.86,0,0,1-.43-.151c-.468-.272-.9-.5-1.214-.649a.494.494,0,0,1-.347-.483.637.637,0,0,1,.589-.641,3.026,3.026,0,0,1,1,.385" transform="translate(-355.807 -244.169)" fill="#fff"/><path d="M378.89,252.3v-2.24h-1.456c-.272,0-.43-.2-.43-.536s.151-.543.43-.543h4.088c.272,0,.43.2.43.543s-.158.536-.43.536h-1.486v2.24h1.788c.287,0,.445.2.445.551s-.158.55-.445.55h-4.7c-.287,0-.438-.2-.438-.55s.158-.551.438-.551Z" transform="translate(-368.396 -246.849)" fill="#fff"/><path d="M401.516,245.063c.483,0,.732.226.732.664a3.358,3.358,0,0,1-2.293,2.738,4.273,4.273,0,0,1-.754.2,4.007,4.007,0,0,1-1.509,2.572.834.834,0,0,1-.565.241.673.673,0,0,1-.671-.671c0-.226.068-.332.37-.551a2.8,2.8,0,0,0,1.214-2.655c.008-.475.015-.875.649-.875s.641.415.641.746a2.073,2.073,0,0,0,1.456-1.161c0-.053-.03-.075-.106-.075h-4.428c-.3,0-.468-.211-.468-.588s.166-.588.468-.588Z" transform="translate(-379.91 -244.489)" fill="#fff"/><path d="M418.709,245.655c-.634.03-1.652.121-2.5.211a3.8,3.8,0,0,1-.407.031c-.34,0-.52-.2-.52-.566a.486.486,0,0,1,.437-.558c.641-.1,2.075-.174,2.965-.219-.008-.09-.015-.317-.015-.392,0-.355.211-.543.633-.543.626,0,.619.3.611.883.649-.008.815-.008.951-.008.822,0,1.162.023,1.162.581,0,.392-.188.573-.588.573-.241,0-1.312-.03-1.531-.023a13.771,13.771,0,0,1-.06,1.418,2.534,2.534,0,0,1,.181.973,2.654,2.654,0,0,1-.792,2.014,2.542,2.542,0,0,1-1.425.792.63.63,0,0,1-.619-.634c0-.3.181-.385.49-.528a1.963,1.963,0,0,0,1.094-.883,1.189,1.189,0,0,1-.8.279,1.38,1.38,0,0,1-1.373-1.486,1.468,1.468,0,0,1,1.591-1.539,1.809,1.809,0,0,1,.528.083c0-.158,0-.309-.008-.46m-.068,1.6a.526.526,0,0,0-.513-.279.5.5,0,0,0-.513.566.491.491,0,0,0,.5.551c.339,0,.528-.2.528-.573Z" transform="translate(-391.663 -243.618)" fill="#fff"/><path d="M440.621,248.736c0-.611-.49-.98-1.3-.98a3.964,3.964,0,0,0-2.934,1.38.5.5,0,0,1-.384.173.606.606,0,0,1-.589-.619c0-.287.083-.354.6-.754.958-.724,2.263-1.826,2.444-1.984a1.515,1.515,0,0,1,.287-.226c-.544.068-1.584.151-1.931.151a.516.516,0,0,1-.565-.588c0-.392.173-.551.618-.558a24.064,24.064,0,0,0,2.844-.151,3.159,3.159,0,0,1,.422-.03.558.558,0,0,1,.558.581.552.552,0,0,1-.279.5c-.505.347-.988.724-1.464,1.1-.09.068-.188.136-.377.257a3.54,3.54,0,0,1,1.147-.2,1.9,1.9,0,0,1,2.127,1.938c0,1.441-1.245,2.384-3.161,2.384-1.229,0-1.969-.467-1.969-1.252a1.344,1.344,0,0,1,1.508-1.215,1.693,1.693,0,0,1,1.667,1.184,1.172,1.172,0,0,0,.724-1.086m-2.406.785c-.279,0-.43.1-.43.287,0,.2.264.309.762.309a3.148,3.148,0,0,0,.445-.03.813.813,0,0,0-.777-.566" transform="translate(-403.806 -244.18)" fill="#fff"/><path d="M460.886,245.968a17.536,17.536,0,0,1,1.961.822c.642.332.77.46.77.784a.673.673,0,0,1-.619.717c-.181,0-.249-.038-.852-.37-.264-.151-.785-.377-1.26-.588v3.093c0,.332-.226.513-.641.513s-.641-.181-.641-.513V244.55c0-.332.226-.513.641-.513s.641.181.641.513Z" transform="translate(-418.39 -243.871)" fill="#fff"/><path d="M480.873,246.6c.6,0,.9.234.9.7a4.584,4.584,0,0,1-2.64,3.666,3.251,3.251,0,0,1-1.328.468.665.665,0,0,1-.588-.7c0-.384.211-.467.731-.648a3.329,3.329,0,0,0,2.391-2.233c0-.068-.045-.09-.2-.09h-4.224c-.294,0-.46-.2-.46-.581s.166-.581.46-.581Zm-4.262-.656c-.294,0-.46-.211-.46-.581s.166-.581.46-.581h4.2c.294,0,.46.211.46.581s-.166.581-.46.581Z" transform="translate(-427.943 -244.317)" fill="#fff"/><path d="M497.918,250.973c-.287,0-.392-.113-.521-.528a6.848,6.848,0,0,0-.3-.754c-.211-.422-.234-.467-.234-.6a.6.6,0,0,1,.634-.528c.294,0,.407.113.664.656a3.927,3.927,0,0,1,.392,1.222.6.6,0,0,1-.633.528m4.081-.936a5.125,5.125,0,0,1-1.765,2.769,2.745,2.745,0,0,1-1.388.709.629.629,0,0,1-.588-.649c0-.249.09-.355.407-.505,1.018-.482,2.082-1.2,2.368-3.59a.5.5,0,0,1,.559-.49c.4,0,.641.2.641.521a6.365,6.365,0,0,1-.234,1.237m-2.467.619a.472.472,0,0,1-.505-.438,6.7,6.7,0,0,0-.28-1.237,1.186,1.186,0,0,1-.06-.3.567.567,0,0,1,.619-.483c.317,0,.46.143.6.6a7.049,7.049,0,0,1,.241,1.29.552.552,0,0,1-.611.566" transform="translate(-440.854 -246.379)" fill="#fff"/><path d="M518.49,246.186a7.743,7.743,0,0,1-1.154,1.426.893.893,0,0,1-.619.317.659.659,0,0,1-.625-.649c0-.249.09-.339.527-.739a6.308,6.308,0,0,0,1.464-2.225.461.461,0,0,1,.46-.317c.385,0,.716.241.716.536a1.116,1.116,0,0,1-.15.513h2c.52,0,.777.226.777.686a6.219,6.219,0,0,1-.415,1.773,5.628,5.628,0,0,1-2.188,2.685,4.2,4.2,0,0,1-1.84.807.657.657,0,0,1-.633-.694c0-.279.128-.43.46-.543a4.581,4.581,0,0,0,3.183-3.13,1.436,1.436,0,0,0,.068-.339c0-.083-.038-.106-.188-.106Z" transform="translate(-452.448 -243.848)" fill="#fff"/><path d="M538.189,249.5c-.513,1.1-.965,1.516-1.674,1.516-.958,0-1.577-.837-1.577-2.127a3.543,3.543,0,0,1,3.772-3.583A2.769,2.769,0,0,1,541.8,248.2a3.494,3.494,0,0,1-.679,2.211,3.05,3.05,0,0,1-1.924,1.161.659.659,0,0,1-.641-.694c0-.347.181-.422.573-.581a2,2,0,0,0,1.419-2.067,1.931,1.931,0,0,0-.528-1.41,1.39,1.39,0,0,0-.928-.415,12.314,12.314,0,0,1-.905,3.1m-2.127-.656c0,.513.2.89.46.89.445,0,1.01-1.547,1.426-3.3a2.427,2.427,0,0,0-1.886,2.414" transform="translate(-463.811 -244.638)" fill="#fff"/><path d="M558.928,248.723v.86h2.451c.264,0,.414.189.414.521s-.15.521-.414.521h-6.057c-.264,0-.415-.189-.415-.521s.143-.521.415-.521h2.467v-.86h-1.8c-.256,0-.4-.173-.4-.5s.144-.505.4-.505h4.768c.256,0,.4.181.4.505s-.144.5-.4.5Zm-1.177-4.307c0-.287,0-.626.6-.626s.6.347.6.626h2.037c.543,0,.7.158.7.709v.468c0,.272-.181.445-.558.445-.558,0-.558-.332-.558-.528,0-.121-.03-.151-.166-.151H556.31c-.136,0-.166.03-.166.158v.264c0,.264-.174.438-.543.438s-.543-.174-.543-.438v-.656c0-.55.159-.709.7-.709Zm.219,1.591c0,.754-1.509,1.584-2.2,1.584a.535.535,0,0,1-.476-.573c0-.264.031-.294.581-.505a2.876,2.876,0,0,0,1.033-.687c.234-.272.3-.317.5-.317a.55.55,0,0,1,.566.5m.407-.1c0-.279.2-.438.551-.438s.543.158.55.438v.49c0,.075.083.106.339.106.52,0,.573,0,.627-.158.044-.181.127-.226.355-.226.377,0,.58.143.58.4a1.079,1.079,0,0,1-.264.732c-.181.151-.4.181-1.456.181-1.191,0-1.282-.12-1.282-.792Z" transform="translate(-475.851 -243.722)" fill="#fff"/><path d="M577.224,244.74c.226,0,.43-.007.988-.045a1.5,1.5,0,0,1-.143-.521c0-.294.286-.5.709-.5.279,0,.392.1.49.438.038.128.075.257.128.415.37-.075.619-.143.875-.219a2.1,2.1,0,0,1,.626-.151.53.53,0,0,1,.483.573c0,.362-.242.543-1.615.769.015.046.053.121.2.438a6.844,6.844,0,0,0,.958-.241c.452-.158.482-.158.6-.158a.551.551,0,0,1,.49.588c0,.362-.241.535-1.516.777a5.435,5.435,0,0,0,.927,1.154.449.449,0,0,1,.151.332.658.658,0,0,1-.6.656.984.984,0,0,1-.37-.113,5.1,5.1,0,0,0-2.142-.453q-1.018,0-1.018.521a.47.47,0,0,0,.309.438,3.532,3.532,0,0,0,1.388.211,9.215,9.215,0,0,0,.927-.045c.091-.008.181-.015.227-.015a.5.5,0,0,1,.513.558c0,.619-.6.619-1.3.619a5,5,0,0,1-2.519-.483,1.4,1.4,0,0,1-.732-1.222,1.371,1.371,0,0,1,.807-1.259,2.9,2.9,0,0,1,1.267-.219,5.13,5.13,0,0,1,1.433.189,4.419,4.419,0,0,1-.475-.671c-1.094.136-2.233.2-2.588.2q-.656,0-.656-.543c0-.37.166-.513.6-.513a16.426,16.426,0,0,0,2.187-.113c-.06-.121-.15-.317-.2-.445-.385.06-1.531.128-1.878.128a.515.515,0,0,1-.6-.543c0-.528.377-.528.641-.528Z" transform="translate(-488.602 -243.653)" fill="#fff"/><path d="M600.223,245.69c.468,0,.754.249.754.641a6.312,6.312,0,0,1-1.093,2.376c2.082,1.7,2.165,1.886,2.165,2.2a.754.754,0,0,1-.717.664.6.6,0,0,1-.46-.241,16.18,16.18,0,0,0-1.75-1.674,9.427,9.427,0,0,1-1.879,1.576c-.528.34-.724.422-.95.422a.678.678,0,0,1-.649-.709c0-.34.158-.415.656-.671a6.555,6.555,0,0,0,3.168-3.341c0-.053-.031-.075-.106-.075h-2.776c-.3,0-.468-.211-.468-.581s.166-.588.468-.588Z" transform="translate(-500.413 -244.867)" fill="#fff"/><path d="M617.932,246.419a33.258,33.258,0,0,0,3.454,3.281c.257.2.325.324.325.551a.724.724,0,0,1-.664.716c-.257,0-.506-.174-1.3-.89-1.041-.958-2.278-2.323-2.323-2.376-.151-.181-.188-.211-.256-.211s-.1.038-.212.2c-1.222,1.8-1.365,1.825-1.667,1.825a.7.7,0,0,1-.686-.664c0-.2.06-.3.354-.626.385-.422.475-.535,1.313-1.607.369-.468.543-.573.943-.573.173,0,.377.023.717.377m3.16.015a.969.969,0,1,1-.965-.973.972.972,0,0,1,.965.973m-1.32,0a.345.345,0,0,0,.347.34.343.343,0,1,0-.347-.34" transform="translate(-511.845 -244.729)" fill="#fff"/><path d="M635.5,252.371c-.317,0-.49-.219-.49-.611s.173-.619.49-.619h5.808c.317,0,.49.219.49.619s-.173.611-.49.611Z" transform="translate(-524.149 -248.154)" fill="#fff"/><path d="M660.187,245.69c.468,0,.755.249.755.641a6.31,6.31,0,0,1-1.094,2.376c2.082,1.7,2.165,1.886,2.165,2.2a.754.754,0,0,1-.717.664.6.6,0,0,1-.46-.241,16.181,16.181,0,0,0-1.75-1.674,9.425,9.425,0,0,1-1.878,1.576c-.528.34-.724.422-.95.422a.678.678,0,0,1-.649-.709c0-.34.159-.415.656-.671a6.556,6.556,0,0,0,3.168-3.341c0-.053-.031-.075-.106-.075h-2.776c-.3,0-.468-.211-.468-.581s.166-.588.468-.588Z" transform="translate(-536.567 -244.867)" fill="#fff"/></g><path d="M152.821,269.445c-.239-.978-.816-1.25-2.4-1.779-.36-.12-.732-.243-1.115-.394a8.258,8.258,0,0,1-3.461-2.6,11.735,11.735,0,1,1-1.779-7.5,9.241,9.241,0,0,1,1.153-2.951,14.328,14.328,0,0,0-12.887-5.042.538.538,0,0,1-.14-1.066,15.4,15.4,0,0,1,13.658,5.194,9.1,9.1,0,0,1,1.285-1.332,17.209,17.209,0,0,0-12.922-5.849.538.538,0,0,1,0-1.075,18.278,18.278,0,0,1,13.782,6.28,9.073,9.073,0,0,1,2.18-1.053c.263-.086.53-.155.8-.217a21.484,21.484,0,1,0-28.123,31.7h-3.724a.592.592,0,0,0,0,1.185h5.864a21.314,21.314,0,0,0,2.169.892H116.288a.592.592,0,0,0,0,1.185h17.379c.181,0,.36.013.542.013s.361-.009.542-.013h.189a.568.568,0,0,0,.063-.007,21.353,21.353,0,0,0,15.239-7.222,9.179,9.179,0,0,1,.716-3.6,11.773,11.773,0,0,1,1.05-1.868C152.753,271.178,153.1,270.578,152.821,269.445ZM134.21,281.932a18.419,18.419,0,0,1-18.356-18.44.535.535,0,1,1,1.07,0,17.345,17.345,0,0,0,17.285,17.365.537.537,0,0,1,0,1.075Zm2.021-3.063A15.417,15.417,0,0,1,118.9,265.522a.535.535,0,1,1,1.061-.141A14.4,14.4,0,0,0,136.091,277.8a.537.537,0,0,1,.14,1.066Z" transform="translate(-82.766 -216.755)" fill="#fff"/><g transform="translate(62.396 22.828)"><path d="M248.921,252.4a7.9,7.9,0,0,0-4.683-4.926c-2.485-.94-4.679.572-7.153.488-6.04-.2-3.365-7.634-6.554-10.5a7.8,7.8,0,0,0-12.15,2.211c-.908,1.746-.475,3.9-1.137,5.745-1.1,3.061-3.4,2.447-5.886,1.793a7.563,7.563,0,0,0-4.194.18,7.868,7.868,0,0,0-5.022,9.9,7.379,7.379,0,0,0,4.224,4.659c1.841.723,3.767.895,4.3,3.067.613,2.508-1.079,3.55-1.928,5.557a7.916,7.916,0,0,0-.241,5.5c1.923,5.939,10.81,7.627,13.914,1.7a7.574,7.574,0,0,1,.878-1.542c1.334-1.527,2.527-1.24,3.582-.347,1.238,1.046,2.288,2.926,3.154,3.688a7.166,7.166,0,0,0,6.866,1.184,8.009,8.009,0,0,0,5.26-6.219c.441-2.5-1.056-4.221-1.906-6.436-.57-1.486-.69-3.337.372-4.518a6.219,6.219,0,0,1,3.341-1.475,6.249,6.249,0,0,0,3.867-2.678A7.945,7.945,0,0,0,248.921,252.4Zm-33.933,5.8a.617.617,0,0,1,.5-.273.739.739,0,0,1,.336.079,2.076,2.076,0,0,0,.735.15.659.659,0,0,0,.278-.05.383.383,0,0,0,.186-.28.376.376,0,0,0-.107-.322,2.668,2.668,0,0,0-.521-.358,4.067,4.067,0,0,1-.928-.689,1.686,1.686,0,0,1-.242-1.67,1.555,1.555,0,0,1,1.528-.961,2.1,2.1,0,0,1,.485.058,1.605,1.605,0,0,1,1.22.91.458.458,0,0,1-.05.373.439.439,0,0,1-.271.208,1.189,1.189,0,0,1-.214.029.836.836,0,0,1-.443-.151,1.5,1.5,0,0,0-.692-.186.62.62,0,0,0-.121.014.448.448,0,0,0-.35.488c.028.287.364.5.692.674a2.8,2.8,0,0,1,1.121,1.061,1.432,1.432,0,0,1-.45,1.771,2.17,2.17,0,0,1-1.242.315c-.121,0-.243-.007-.371-.015a2.074,2.074,0,0,1-.971-.387A.617.617,0,0,1,214.988,258.2Zm3.9,4.166c-.136-.007-.621,0-1.2.007-.014.566,0,3.535-.014,3.843-.015.38-.093.631-.536.653-.407.029-.564-.366-.578-.731-.014-.4-.028-3.054.007-3.75-.6.014-1.107.021-1.221.014-.357-.014-.6-.093-.657-.5s.343-.6.685-.609c.4-.014,3.226-.014,3.562.028a.543.543,0,0,1,.493.545A.521.521,0,0,1,218.885,262.368Zm.471-3.65c-.036-.358-.057-3.771-.036-3.986.029-.373.036-.739.514-.739a.662.662,0,0,1,.635.739c.007.444.057,1.326.057,1.326a1.891,1.891,0,0,1,1.406.122,1.632,1.632,0,0,1,.842,1.492,6.447,6.447,0,0,1-.007,1.226.493.493,0,0,1-.514.444.538.538,0,0,1-.571-.494c-.021-.222-.015-.9-.029-1.119a.582.582,0,0,0-1.163.021c-.007.222.014.739-.014.939-.079.466-.25.624-.578.652C219.528,259.37,219.392,259.156,219.357,258.718Zm3.14,5.743a1.546,1.546,0,0,0-1.156,1.09c-.129.445-.028,1.09-.45,1.2-.686.186-.657-.222-.714-.566s-.057-1.864-.093-2.374.114-.8.493-.8a.536.536,0,0,1,.585.581v.366c.1.072.421-.408.921-.574s1-.086,1.092.33S223.061,264.3,222.5,264.461Zm8.972-8.209c.1.409-.114.6-.678.753a1.548,1.548,0,0,0-1.156,1.09c-.129.444-.028,1.09-.45,1.2-.686.187-.657-.222-.714-.566s-.057-1.864-.093-2.373.114-.8.493-.8a.536.536,0,0,1,.585.581v.366c.1.072.421-.409.921-.573S231.376,255.836,231.469,256.252Zm-6.759-.2a1.954,1.954,0,0,1,2.32.581,3.551,3.551,0,0,1,.3,2.216.537.537,0,0,1-.585.559c-.321,0-.45-.388-.45-.388a1.844,1.844,0,0,1-1.171.294,1.453,1.453,0,0,1-1.435-1.412A1.774,1.774,0,0,1,224.71,256.051Zm1.57,10.7c-1.292.265-2.056-.15-2.256-1.161a5.759,5.759,0,0,1-.093-1.628c-.036-.6.143-.81.542-.832s.578.38.6.7-.028,1.642.207,1.764.764.151.921-.186a7.944,7.944,0,0,0,.114-1.785c.022-.33.243-.488.607-.459s.464.3.493.953C227.436,264.662,227.579,266.483,226.28,266.748Zm.261-26.794a3.218,3.218,0,0,1-.731-.151c-.262-.133-1.235-1.1-.064-.935.512.071,1.043-.3.878-.882-.117-.411-.178-.735.5-.614a5.358,5.358,0,0,1,3.469,3.59c.143.53.428,2.414-.177,2.767l-.81-.19-.007-.431c-.1-.244-.085-.562-.169-.823a3.254,3.254,0,0,0-1.647-1.94A4.993,4.993,0,0,0,226.541,239.953Zm4.414,26.795a2.5,2.5,0,0,1-1.4-.036,1.755,1.755,0,0,1-1.285-1.649,1.79,1.79,0,0,1,1.32-1.922,2.081,2.081,0,0,1,1.635.18.591.591,0,0,1,.271.738.5.5,0,0,1-.678.351c-.464-.165-1.1-.193-1.228.4-.071.366.1.674.692.746.314.036.692-.072.9-.022a.53.53,0,0,1,.392.574C231.576,266.491,231.255,266.662,230.955,266.748Zm2.434-11.048a1.493,1.493,0,0,1,1.642.739.982.982,0,0,1-.307,1.362,2.932,2.932,0,0,1-1.292.172c.071.036.135.458,1.006.258a.489.489,0,0,1,.521.71c-.128.237-.557.523-1.456.366-.735-.129-1.377-.588-1.377-1.95A1.6,1.6,0,0,1,233.389,255.7Zm1.9,10.145a.71.71,0,0,1,0,.76.649.649,0,0,1-.878.014c-.171-.151-.557-.545-.871-.86,0,.258,0,.444-.007.5a.61.61,0,0,1-.578.581c-.371.029-.535-.258-.514-.617s-.036-3.75-.036-4.044c0-.322.071-.659.471-.659a.633.633,0,0,1,.657.63c0,.136.007.882.007,1.707.342-.273.828-.652.992-.767a.586.586,0,0,1,.828.136.662.662,0,0,1-.171.817c-.257.2-.871.774-.871.774S235.116,265.637,235.288,265.845Zm4.764,5.539a.869.869,0,0,1,.479.338,4.073,4.073,0,0,1,.549,3.452,2.424,2.424,0,0,1-2.293,1.787.816.816,0,0,1-.548-.2.617.617,0,0,1-.076-.7,2.225,2.225,0,0,1,.461-.536,3.632,3.632,0,0,0,1.073-2.046,14.476,14.476,0,0,0-.064-1.621C239.639,271.678,239.769,271.32,240.052,271.384Zm7.072-15.262c-.209.905-1.4,2.926-2.353,1.7-.371-.479.106-1.163.269-1.615a3.361,3.361,0,0,0,.167-1.761c-.189-1.186-.872-1.273-1.161-1.97a1.114,1.114,0,0,1,.278-1.152c.893-.852,1.926.366,2.461,1.224A5.148,5.148,0,0,1,247.124,256.122Z" transform="translate(-201.758 -235.468)" fill="#fff"/><path d="M289.325,293.489a.448.448,0,0,0-.621-.25c-.2.186-.3.386-.164.494C288.74,293.876,289.4,293.768,289.325,293.489Z" transform="translate(-256.909 -272.089)" fill="#fff"/><path d="M265.6,295.493a.809.809,0,0,0,.728-.451.652.652,0,0,0-.485-.93.7.7,0,0,0-.906.608A.643.643,0,0,0,265.6,295.493Z" transform="translate(-241.93 -272.646)" fill="#fff"/></g></g></g></svg>